<?xml version="1.0" encoding="UTF-8" standalone="no"?>
<!-- Created with Inkscape (http://www.inkscape.org/) -->

<svg
   width="100pt"
   height="47.791412pt"
   viewBox="0 0 35.277777 16.859747"
   version="1.1"
   id="svg1"
   inkscape:version="1.4.3 (0d15f75, 2025-12-25)"
   sodipodi:docname="logo_small.svg"
   xmlns:inkscape="http://www.inkscape.org/namespaces/inkscape"
   xmlns:sodipodi="http://sodipodi.sourceforge.net/DTD/sodipodi-0.dtd"
   xmlns="http://www.w3.org/2000/svg"
   xmlns:svg="http://www.w3.org/2000/svg">
  <sodipodi:namedview
     id="namedview1"
     pagecolor="#ffffff"
     bordercolor="#000000"
     borderopacity="0.25"
     inkscape:showpageshadow="2"
     inkscape:pageopacity="0.0"
     inkscape:pagecheckerboard="0"
     inkscape:deskcolor="#d1d1d1"
     inkscape:document-units="mm"
     inkscape:zoom="3.0439003"
     inkscape:cx="118.59784"
     inkscape:cy="38.766053"
     inkscape:window-width="1512"
     inkscape:window-height="783"
     inkscape:window-x="0"
     inkscape:window-y="33"
     inkscape:window-maximized="0"
     inkscape:current-layer="layer1" />
  <defs
     id="defs1" />
  <g
     inkscape:label="Layer 1"
     inkscape:groupmode="layer"
     id="layer1"
     transform="translate(-702.99791,-48.154167)">
    <g
       id="g394"
       inkscape:export-filename="logo_nine.png"
       inkscape:export-xdpi="96"
       inkscape:export-ydpi="96"
       transform="matrix(0.13333333,0,0,0.13333333,638.78869,47.539038)">
      <path
         style="font-weight:bold;font-size:172.861px;line-height:0;font-family:Comfortaa;-inkscape-font-specification:'Comfortaa Bold';text-align:center;letter-spacing:2.73511px;word-spacing:0.683779px;text-anchor:middle;fill:#bccbd1;fill-opacity:1;stroke-width:13.1679;stroke-linecap:round;stroke-linejoin:round"
         d="m 490.50848,53.611411 c -1.21286,0 -2.30293,0.44082 -3.14222,1.27631 -0.85139,0.79919 -1.17654,1.90659 -1.28956,3.15632 l -4.4937,49.689409 c -0.10953,1.21113 0.44083,2.31008 1.28127,3.15049 0.84027,0.84029 1.93409,1.28213 3.15051,1.28213 1.21641,0 2.31023,-0.44184 3.1505,-1.28213 0.84044,-0.84041 1.11817,-1.94539 1.28127,-3.15049 0,0 2.09971,-32.777979 3.37028,-33.201219 1.27056,-0.42324 17.49627,32.808929 17.49627,32.808929 0.81097,1.67603 2.26942,2.6231 4.07683,2.6231 1.56069,0 2.90165,-0.78607 3.8181,-2.18772 0.0138,-0.0212 0.0262,-0.0429 0.0373,-0.0655 0,0 17.39377,-34.001079 18.39175,-33.821479 0.99798,0.17961 2.69622,33.843899 2.69622,33.843899 0.0966,1.21257 0.44182,2.31021 1.2821,3.15049 0.8401,0.84012 1.93325,1.28213 3.14967,1.28213 1.17107,0 2.23486,-0.44604 3.06924,-1.27716 0.88691,-0.83566 1.47257,-1.93877 1.36254,-3.15546 l -4.4937,-49.689409 c -0.11302,-1.24973 -0.43817,-2.35713 -1.28956,-3.15632 -0.83929,-0.83549 -1.92937,-1.27631 -3.14221,-1.27631 -1.65951,0 -3.04515,0.85226 -3.91015,2.36601 -0.007,0.0119 -0.0131,0.0242 -0.0191,0.0365 l -20.68023,42.51425 -21.22674,-42.52006 c -0.005,-0.0102 -0.0108,-0.0208 -0.0166,-0.0306 -0.86499,-1.51374 -2.25064,-2.366 -3.91014,-2.366 z"
         id="path384" />
      <path
         style="font-weight:bold;font-size:172.861px;line-height:0;font-family:Comfortaa;-inkscape-font-specification:'Comfortaa Bold';text-align:center;letter-spacing:2.73511px;word-spacing:0.683779px;text-anchor:middle;fill:#bccbd1;fill-opacity:1;stroke-width:13.1679;stroke-linecap:round;stroke-linejoin:round"
         d="m 731.91991,52.652751 c -1.21285,0 -2.30293,0.44082 -3.14222,1.27626 -0.85138,0.79923 -1.28956,1.90154 -1.28956,3.15636 v 49.689369 c 0,1.21614 0.44084,2.31008 1.28127,3.15054 0.84027,0.84029 1.93409,1.28213 3.15051,1.28213 1.25512,0 2.35661,-0.43938 3.15548,-1.29041 0.83547,-0.83931 1.27629,-1.92939 1.27629,-3.14226 V 57.085371 c 0,-1.25143 -0.43833,-2.34957 -1.28458,-3.14803 -0.7983,-0.84611 -1.8958,-1.28459 -3.14719,-1.28459 z"
         id="path385" />
      <path
         id="path386"
         style="font-weight:bold;font-size:172.861px;line-height:0;font-family:Comfortaa;-inkscape-font-specification:'Comfortaa Bold';text-align:center;letter-spacing:2.73511px;word-spacing:0.683779px;text-anchor:middle;fill:#bccbd1;fill-opacity:1;stroke-width:13.1679;stroke-linecap:round;stroke-linejoin:round"
         d="m 697.64425,52.650841 h -13.21164 c -1.21285,0 -2.3023,0.44086 -3.14142,1.27614 -0.85122,0.79905 -1.2904,1.90123 -1.2904,3.15635 v 49.689539 c 0,1.21644 0.44179,2.31013 1.28206,3.15041 0.84011,0.84012 1.93334,1.28209 3.14976,1.28209 1.25512,0 2.35728,-0.43921 3.15633,-1.29041 0.83563,-0.83948 1.27549,-1.92956 1.27549,-3.14209 V 89.112741 h 7.43171 c 0.34245,0 0.67816,-0.0132 1.01415,-0.0259 3.95693,0 10.82526,23.218379 21.59758,31.117159 4.20396,3.08254 8.09988,4.43291 13.31281,4.46157 4.19501,0.0229 9.78197,-2.38154 11.97017,-3.88612 2.1882,-1.50457 2.41626,-4.35759 1.322,-5.63314 -1.09426,-1.2755 -2.77409,-1.9845 -5.1943,-0.56017 -2.42021,1.42432 -5.28642,2.76589 -8.1615,2.79145 -2.67884,0.0238 -5.54662,-0.8053 -7.64937,-2.46519 -8.5666,-6.76237 -17.00473,-27.980069 -17.00473,-27.980069 0.0615,-0.031 0.12454,-0.0588 0.18563,-0.0904 2.92771,-1.51439 5.22493,-3.62979 6.84915,-6.31926 1.67478,-2.69231 2.51125,-5.77589 2.51125,-9.20021 0,-3.66146 -0.83172,-6.91208 -2.50533,-9.70468 l -0.002,-0.004 c -1.62043,-2.78407 -3.91348,-4.97297 -6.83906,-6.53822 -2.93613,-1.61994 -6.30119,-2.42655 -10.05859,-2.42655 z m -8.77982,8.27908 h 8.77982 c 2.16623,0 4.03836,0.4438 5.65156,1.31958 1.62056,0.87969 2.87627,2.08963 3.80077,3.66125 0.9198,1.56368 1.38234,3.35392 1.38234,5.4137 0,1.85343 -0.45621,3.48781 -1.37246,4.95514 -0.9181,1.42131 -2.1705,2.53963 -3.79331,3.37533 -1.61571,0.7833 -3.49684,1.18242 -5.6689,1.18242 h -8.77982 z"
         sodipodi:nodetypes="cscsssscscscscssssscscsccccccscssccscc" />
      <path
         style="font-weight:bold;font-size:172.861px;line-height:0;font-family:Comfortaa;-inkscape-font-specification:'Comfortaa Bold';text-align:center;letter-spacing:2.73511px;word-spacing:0.683779px;text-anchor:middle;fill:#bccbd1;fill-opacity:1;stroke-width:13.1679;stroke-linecap:round;stroke-linejoin:round"
         d="m 648.17564,51.918781 c -4.08992,0 -7.89887,0.77583 -11.40535,2.32869 -3.49576,1.54813 -6.57461,3.69993 -9.22181,6.44701 v 0 c -2.59946,2.69944 -4.64992,5.87546 -6.14511,9.51378 -4.2e-4,0 -10e-4,0.004 -0.002,0.004 -1.45001,3.60002 -2.17277,7.49892 -2.17277,11.67993 0,4.22907 0.72266,8.17599 2.17193,11.8242 8.5e-4,0 0.002,0.004 0.003,0.007 1.4948,3.63734 3.54378,6.837219 6.14096,9.584259 0.003,0.004 0.005,0.006 0.008,0.008 2.64696,2.6969 5.72411,4.8227 9.21766,6.36987 0.003,0 0.006,0.004 0.009,0.004 3.55139,1.50063 7.35686,2.25073 11.39623,2.25073 3.39069,0 6.64006,-0.52456 9.73845,-1.574 0.003,0 0.006,0 0.008,-0.004 3.10346,-1.10124 5.98272,-2.754 8.62803,-4.95012 0.005,-0.005 0.0106,-0.009 0.0158,-0.014 0.49498,-0.43998 0.85601,-0.9388 1.04574,-1.49443 0.21819,-0.55033 0.33504,-1.11466 0.33504,-1.68095 V 84.681291 c 0,-1.24659 -0.40375,-2.33866 -1.20331,-3.14222 -0.79884,-0.85073 -1.89979,-1.29041 -3.15466,-1.29041 h -13.72521 c -1.19779,0 -2.27193,0.37204 -3.11817,1.10545 -0.85194,0.73838 -1.31361,1.75428 -1.31361,2.88682 0,1.13254 0.46187,2.1478 1.31361,2.88597 0.84624,0.73342 1.92038,1.10545 3.11817,1.10545 h 9.51371 v 12.080499 c -1.41674,0.88079 -2.87209,1.62732 -4.37538,2.21591 -2.12941,0.80406 -4.39979,1.20743 -6.82596,1.20743 -2.80477,0 -5.42836,-0.54395 -7.89244,-1.63288 -2.47113,-1.14103 -4.65291,-2.705729 -6.55644,-4.702969 l -0.002,-0.004 c -1.8555,-1.99881 -3.30588,-4.30231 -4.35548,-6.92634 -1.04649,-2.66501 -1.57069,-5.52007 -1.57069,-8.58 0,-3.01111 0.52427,-5.81632 1.57069,-8.43237 2.8e-4,0 4.2e-4,-0.004 8.5e-4,-0.004 1.05001,-2.67273 2.50083,-4.9998 4.35465,-6.99683 8.5e-4,0 8.5e-4,0 0.002,-0.004 1.90439,-1.99818 4.08722,-3.56347 6.55975,-4.70463 2.46405,-1.13725 5.08556,-1.70422 7.88912,-1.70422 3.12697,0 5.59387,0.41407 7.3874,1.19585 0.002,0 0.003,0 0.005,0.004 1.8922,0.80419 3.72168,1.9662 5.48996,3.49552 0.003,0.004 0.007,0.007 0.0108,0.01 0.92407,0.76097 1.976,1.15122 3.06592,1.09386 1.10083,-0.0554 2.07616,-0.46486 2.81713,-1.20252 0.78776,-0.73676 1.21575,-1.71309 1.21575,-2.78895 0,-0.45729 -0.0563,-0.85531 -0.16752,-1.21907 -0.0683,-0.43161 -0.26,-0.83578 -0.54236,-1.18672 -0.24363,-0.4077 -0.57703,-0.77188 -1.00097,-1.09054 -2.77715,-2.2785 -5.5709,-3.92943 -8.38338,-4.93438 h -0.003 c -2.77709,-1.00931 -6.07475,-1.50516 -9.89436,-1.50516 z"
         id="path387" />
      <path
         id="path388"
         style="fill:#bccbd1;fill-opacity:1;stroke:#bccbd1;stroke-width:1.2738;stroke-linecap:round;stroke-linejoin:round;stroke-dasharray:none;stroke-opacity:1"
         d="m 593.75219,48.838341 c -1.27498,4.06768 -0.12113,6.12882 1.5911,6.85302 3.42446,1.44845 6.50838,3.54436 9.09829,6.1343 5.17982,5.17984 8.38361,12.33572 8.38361,20.23993 0,15.80836 -12.81515,28.623549 -28.62343,28.623549 -15.80828,0 -28.62343,-12.815189 -28.62343,-28.623549 0,-7.90421 3.20379,-15.06009 8.38361,-20.23993 2.58991,-2.58994 5.67383,-4.68585 9.09829,-6.1343 1.71223,-0.7242 2.4429,-2.82177 0.87922,-6.64742"
         sodipodi:nodetypes="csssssssc" />
      <ellipse
         style="fill:#bccbd1;fill-opacity:1;stroke:#bccbd1;stroke-width:1.2738;stroke-linecap:round;stroke-linejoin:round;stroke-dasharray:none;stroke-opacity:1"
         id="ellipse388"
         ry="3.5713944"
         rx="11.071323"
         cy="48.162815"
         cx="584.20172" />
      <path
         id="path389"
         style="fill:#bccbd1;fill-opacity:1;stroke:#bccbd1;stroke-width:1.21861;stroke-linecap:round;stroke-linejoin:miter;stroke-dasharray:none;stroke-opacity:1"
         d="m 600.50174,5.222775 a 10.155818,10.155818 0 0 0 -10.14306,9.64762 8.9470925,8.9470925 0 0 0 -6.86232,8.700828 8.9470925,8.9470925 0 0 0 0.11826,1.449482 4.3684562,4.3684562 0 0 0 -0.33834,-0.01316 4.3684562,4.3684562 0 0 0 -4.36863,4.368406 4.3684562,4.3684562 0 0 0 3.60725,4.301485 5.1281877,5.1281877 0 0 0 -0.5683,2.346244 5.1281877,5.1281877 0 0 0 0.72716,2.632365 3.1338924,3.1338924 0 0 0 -0.82194,2.115856 3.1338924,3.1338924 0 0 0 0.64377,1.903019 c 0.64721,1.274292 1.78906,2.29677 2.00615,4.788591 0,0 1.00967,-0.618456 1.33011,-1.515082 0.14995,-0.419578 0.21856,-1.325214 0.17246,-2.041694 0.32259,-0.286856 0.91227,-0.531456 1.22195,-0.943719 a 3.1338924,3.1338924 0 0 0 0.88118,-1.916403 5.1281877,5.1281877 0 0 0 3.25925,-2.216129 6.9325505,6.9325505 0 0 0 0.003,0 6.9325505,6.9325505 0 0 0 6.33177,-4.109709 8.2755782,8.2755782 0 0 0 6.29271,2.900934 8.2755782,8.2755782 0 0 0 8.27559,-8.275599 8.2755782,8.2755782 0 0 0 -4.19528,-7.199782 10.155818,10.155818 0 0 0 2.58365,-6.767751 10.155818,10.155818 0 0 0 -10.15579,-10.155796 z" />
      <path
         id="path390"
         style="fill:#bccbd1;fill-opacity:1;stroke-width:0.347156;stroke-linecap:round"
         d="m 743.97414,34.857844 c -9.71302,0.952168 -10.39617,2.218838 -12.10302,12.659867 -2.12566,-10.307237 -2.96669,-11.467672 -12.88456,-11.878303 9.63572,-1.953038 10.75661,-3.257965 12.10301,-12.884563 2.36441,9.325641 3.4463,10.556305 12.88457,12.102999 z"
         sodipodi:nodetypes="ccccc" />
      <path
         id="path391"
         style="fill:#bccbd1;fill-opacity:1;stroke-width:0.315541;stroke-linecap:round"
         d="m 540.57999,119.55464 c -8.82848,0.86542 -9.44942,2.01673 -11.00083,11.50694 -1.93208,-9.36857 -2.69653,-10.42332 -11.71121,-10.79654 8.75824,-1.77522 9.77705,-2.9613 11.00084,-11.71122 2.14908,8.4764 3.13245,9.59501 11.7112,11.00082 z"
         sodipodi:nodetypes="ccccc" />
      <path
         id="path392"
         style="fill:#bccbd1;fill-opacity:1;stroke-width:0.174608;stroke-linecap:round"
         d="m 503.96772,36.252065 c -4.88534,0.478907 -5.22895,1.115979 -6.08743,6.367488 -1.06915,-5.18421 -1.49216,-5.767867 -6.48053,-5.974393 4.84646,-0.982314 5.41023,-1.638663 6.08743,-6.480516 1.18922,4.690483 1.73338,5.309509 6.48053,6.087421 z"
         sodipodi:nodetypes="ccccc" />
      <path
         id="path393"
         style="fill:#bccbd1;fill-opacity:1;stroke-width:0.177312;stroke-linecap:round"
         d="m 705.82069,115.39066 c -4.96097,0.4863 -5.3099,1.13326 -6.18168,6.46608 -1.08569,-5.26446 -1.51525,-5.85716 -6.58086,-6.06687 4.9215,-0.99756 5.494,-1.66405 6.18168,-6.58089 1.20764,4.76313 1.76022,5.39171 6.58086,6.18168 z"
         sodipodi:nodetypes="ccccc" />
      <path
         id="path394"
         style="fill:#bccbd1;fill-opacity:1;stroke-width:0.122976;stroke-linecap:round"
         d="m 622.91251,50.310271 c -3.44074,0.3373 -3.68274,0.78598 -4.28737,4.48463 -0.753,-3.65123 -1.05093,-4.06228 -4.56424,-4.20775 3.41337,-0.69185 3.81043,-1.15411 4.28738,-4.564251 0.83757,3.303521 1.22082,3.739501 4.56423,4.287371 z"
         sodipodi:nodetypes="ccccc" />
    </g>
  </g>
</svg>
