<?xml version="1.0" encoding="UTF-8" standalone="no"?>
<svg
   height="48px"
   viewBox="0 -960 960 960"
   width="48px"
   fill="#e3e3e3"
   version="1.1"
   id="svg1"
   sodipodi:docname="wand_stars.svg"
   inkscape:version="1.4.3 (0d15f75, 2025-12-25)"
   xmlns:inkscape="http://www.inkscape.org/namespaces/inkscape"
   xmlns:sodipodi="http://sodipodi.sourceforge.net/DTD/sodipodi-0.dtd"
   xmlns="http://www.w3.org/2000/svg"
   xmlns:svg="http://www.w3.org/2000/svg">
  <defs
     id="defs1" />
  <sodipodi:namedview
     id="namedview1"
     pagecolor="#ffffff"
     bordercolor="#000000"
     borderopacity="0.25"
     inkscape:showpageshadow="2"
     inkscape:pageopacity="0.0"
     inkscape:pagecheckerboard="0"
     inkscape:deskcolor="#d1d1d1"
     inkscape:zoom="2.3398342"
     inkscape:cx="36.754741"
     inkscape:cy="91.459472"
     inkscape:window-width="1512"
     inkscape:window-height="861"
     inkscape:window-x="0"
     inkscape:window-y="33"
     inkscape:window-maximized="1"
     inkscape:current-layer="svg1" />
  <path
     d="m162-121-42-42 326-326-185-46 192-120-16-225 173 145 209-84-85 209 146 173-226-17-119 192-46-185-327 326Zm25-544-67-67 68-68 67 67-68 68Zm372 251 63-102 120 9-78-92 45-111-111 45-92-78 9 120-102 64 117 29 29 116Zm174 294-67-68 67-67 67 68-67 67ZM578-579Z"
     id="path1"
     style="fill:#ffffff" />
</svg>
