<?xml version="1.0" encoding="UTF-8" standalone="no"?>
<svg
   width="456"
   height="456"
   viewBox="0 0 456 456"
   version="1.1"
   xml:space="preserve"
   style="fill-rule:evenodd;clip-rule:evenodd;stroke-linejoin:round;stroke-miterlimit:2;"
   id="svg4"
   sodipodi:docname="appiconfg.svg"
   inkscape:version="1.4.3 (0d15f75, 2025-12-25)"
   xmlns:inkscape="http://www.inkscape.org/namespaces/inkscape"
   xmlns:sodipodi="http://sodipodi.sourceforge.net/DTD/sodipodi-0.dtd"
   xmlns:xlink="http://www.w3.org/1999/xlink"
   xmlns="http://www.w3.org/2000/svg"
   xmlns:svg="http://www.w3.org/2000/svg"><defs
   id="defs4"><linearGradient
     id="linearGradient193"
     inkscape:collect="always"><stop
       style="stop-color:#6c6ec8;stop-opacity:1;"
       offset="0"
       id="stop193" /><stop
       style="stop-color:#abe2ef;stop-opacity:0.76078433;"
       offset="0.28264982"
       id="stop195" /><stop
       style="stop-color:#abefef;stop-opacity:1;"
       offset="1"
       id="stop194" /></linearGradient><linearGradient
     id="linearGradient208"
     inkscape:collect="always"><stop
       style="stop-color:#fefefe;stop-opacity:0.35993743;"
       offset="0"
       id="stop208" /><stop
       style="stop-color:#cbd1ea;stop-opacity:0.77777779;"
       offset="1"
       id="stop209" /></linearGradient><linearGradient
     id="linearGradient1"
     inkscape:collect="always"><stop
       style="stop-color:#b06131;stop-opacity:0.09859155;"
       offset="0"
       id="stop1" /><stop
       style="stop-color:#b06131;stop-opacity:0.58998436;"
       offset="1"
       id="stop2" /></linearGradient><linearGradient
     id="linearGradient85"
     inkscape:collect="always"><stop
       style="stop-color:#b06131;stop-opacity:0.00156495;"
       offset="0"
       id="stop84" /><stop
       style="stop-color:#b06131;stop-opacity:0.58998436;"
       offset="1"
       id="stop85" /></linearGradient><linearGradient
     id="linearGradient206"
     inkscape:collect="always"><stop
       style="stop-color:#d8eef4;stop-opacity:0.37558687;"
       offset="0"
       id="stop206" /><stop
       style="stop-color:#e6e6e6;stop-opacity:0;"
       offset="1"
       id="stop207" /></linearGradient><linearGradient
     id="linearGradient199"
     inkscape:collect="always"><stop
       style="stop-color:#ffffff;stop-opacity:1;"
       offset="0"
       id="stop199" /><stop
       style="stop-color:#ffffff;stop-opacity:1;"
       offset="0.60000026"
       id="stop201" /><stop
       style="stop-color:#e6e6e6;stop-opacity:1;"
       offset="1"
       id="stop200" /></linearGradient><inkscape:path-effect
     effect="skeletal"
     id="path-effect150"
     is_visible="true"
     lpeversion="1"
     pattern="M 0,4.9921382 C 0,2.2364779 2.2364779,0 4.9921382,0 c 2.7556604,0 4.9921383,2.2364779 4.9921383,4.9921382 0,2.7556604 -2.2364779,4.9921383 -4.9921383,4.9921383 C 2.2364779,9.9842765 0,7.7477986 0,4.9921382 Z"
     copytype="single_stretched"
     prop_scale="0.12149677"
     scale_y_rel="false"
     spacing="0"
     normal_offset="0"
     tang_offset="0"
     prop_units="false"
     vertical_pattern="false"
     hide_knot="false"
     fuse_tolerance="0" /><inkscape:path-effect
     effect="skeletal"
     id="path-effect153"
     is_visible="true"
     lpeversion="1"
     pattern="M 0,4.9921382 C 0,2.2364779 2.2364779,0 4.9921382,0 c 2.7556604,0 4.9921383,2.2364779 4.9921383,4.9921382 0,2.7556604 -2.2364779,4.9921383 -4.9921383,4.9921383 C 2.2364779,9.9842765 0,7.7477986 0,4.9921382 Z"
     copytype="single_stretched"
     prop_scale="0.18423742"
     scale_y_rel="false"
     spacing="0"
     normal_offset="0"
     tang_offset="0"
     prop_units="false"
     vertical_pattern="false"
     hide_knot="false"
     fuse_tolerance="0" /><inkscape:path-effect
     effect="skeletal"
     id="path-effect156"
     is_visible="true"
     lpeversion="1"
     pattern="M 0,4.9921382 C 0,2.2364779 2.2364779,0 4.9921382,0 c 2.7556604,0 4.9921383,2.2364779 4.9921383,4.9921382 0,2.7556604 -2.2364779,4.9921383 -4.9921383,4.9921383 C 2.2364779,9.9842765 0,7.7477986 0,4.9921382 Z"
     copytype="single_stretched"
     prop_scale="0.12149677"
     scale_y_rel="false"
     spacing="0"
     normal_offset="0"
     tang_offset="0"
     prop_units="false"
     vertical_pattern="false"
     hide_knot="false"
     fuse_tolerance="0" /><linearGradient
     id="linearGradient186"
     inkscape:collect="always"><stop
       style="stop-color:#bbd1d5;stop-opacity:1;"
       offset="0"
       id="stop186" /><stop
       style="stop-color:#eafbfb;stop-opacity:0.92411923;"
       offset="1"
       id="stop187" /></linearGradient><linearGradient
     id="linearGradient214"
     inkscape:collect="always"><stop
       style="stop-color:#ffffff;stop-opacity:0;"
       offset="0"
       id="stop214" /><stop
       style="stop-color:#ffffff;stop-opacity:0.19607843;"
       offset="0.38336152"
       id="stop216" /><stop
       style="stop-color:#ffffff;stop-opacity:0;"
       offset="1"
       id="stop215" /></linearGradient><linearGradient
     id="linearGradient216"
     inkscape:collect="always"><stop
       style="stop-color:#79441f;stop-opacity:0.74178404;"
       offset="0"
       id="stop217" /><stop
       style="stop-color:#c77846;stop-opacity:1;"
       offset="1"
       id="stop218" /></linearGradient><inkscape:path-effect
     effect="fill_between_many"
     method="bsplinespiro"
     autoreverse="false"
     close="false"
     join="false"
     linkedpaths="#path145,0,1"
     id="path-effect159"
     is_visible="true"
     lpeversion="0" /><inkscape:path-effect
     effect="powerstroke"
     message=""
     id="path-effect163"
     is_visible="true"
     lpeversion="1.3"
     scale_width="0.3"
     interpolator_type="CubicBezierJohan"
     interpolator_beta="0.2"
     start_linecap_type="zerowidth"
     end_linecap_type="zerowidth"
     offset_points="0,4.9921382"
     linejoin_type="extrp_arc"
     miter_limit="4"
     not_jump="false"
     sort_points="true" /><inkscape:path-effect
     effect="powerstroke"
     message=""
     id="path-effect166"
     is_visible="true"
     lpeversion="1.3"
     scale_width="0.3"
     interpolator_type="CubicBezierJohan"
     interpolator_beta="0.2"
     start_linecap_type="zerowidth"
     end_linecap_type="zerowidth"
     offset_points="0,4.9921382"
     linejoin_type="extrp_arc"
     miter_limit="4"
     not_jump="false"
     sort_points="true" /><linearGradient
     id="linearGradient240"
     inkscape:collect="always"><stop
       style="stop-color:#ffffff;stop-opacity:1;"
       offset="0"
       id="stop240" /><stop
       style="stop-color:#d3dbdb;stop-opacity:1;"
       offset="1"
       id="stop241" /></linearGradient><linearGradient
     inkscape:collect="always"
     xlink:href="#linearGradient193"
     id="linearGradient329"
     gradientUnits="userSpaceOnUse"
     gradientTransform="matrix(0.61336465,0,0,0.61336465,481.21302,587.29483)"
     x1="-406.69528"
     y1="-342.2905"
     x2="-405.18878"
     y2="-431.7374" /><radialGradient
     inkscape:collect="always"
     xlink:href="#linearGradient245"
     id="radialGradient329"
     gradientUnits="userSpaceOnUse"
     gradientTransform="matrix(0.61336465,0,0,0.61336465,477.31815,590.54056)"
     cx="-393.82199"
     cy="-419.21332"
     fx="-393.82199"
     fy="-419.21332"
     r="12.968445" /><linearGradient
     id="linearGradient245"
     inkscape:collect="always"><stop
       style="stop-color:#ffb100;stop-opacity:1;"
       offset="0"
       id="stop244" /><stop
       style="stop-color:#e07a5f;stop-opacity:1;"
       offset="1"
       id="stop245" /></linearGradient><linearGradient
     inkscape:collect="always"
     xlink:href="#linearGradient208"
     id="linearGradient330"
     gradientUnits="userSpaceOnUse"
     gradientTransform="matrix(0.62853967,0,0,0.62853967,487.35739,592.98392)"
     x1="-404.39069"
     y1="-444.47589"
     x2="-404.39069"
     y2="-305.62152" /><linearGradient
     inkscape:collect="always"
     xlink:href="#linearGradient250"
     id="linearGradient331"
     gradientUnits="userSpaceOnUse"
     gradientTransform="matrix(0.68286224,0,0,0.68286224,610.50967,736.66312)"
     x1="-553.21216"
     y1="-510.26627"
     x2="-553.21216"
     y2="-576.05737" /><linearGradient
     id="linearGradient250"
     inkscape:collect="always"><stop
       style="stop-color:#68370b;stop-opacity:1;"
       offset="0"
       id="stop249" /><stop
       style="stop-color:#b15d14;stop-opacity:1;"
       offset="1"
       id="stop250" /></linearGradient><linearGradient
     inkscape:collect="always"
     xlink:href="#linearGradient1"
     id="linearGradient332"
     gradientUnits="userSpaceOnUse"
     gradientTransform="matrix(0.65479775,0,0,0.65479775,473.96349,602.02567)"
     x1="-401.81522"
     y1="-356.41989"
     x2="-388.94495"
     y2="-384.54544" /><linearGradient
     inkscape:collect="always"
     xlink:href="#linearGradient85"
     id="linearGradient333"
     gradientUnits="userSpaceOnUse"
     gradientTransform="matrix(0.65479775,0,0,0.65479775,497.98183,602.02567)"
     x1="-391.35706"
     y1="-332.29993"
     x2="-388.94495"
     y2="-384.54544" /><linearGradient
     inkscape:collect="always"
     xlink:href="#linearGradient206"
     id="linearGradient334"
     gradientUnits="userSpaceOnUse"
     gradientTransform="matrix(0.61336465,0,0,0.61336465,481.21302,587.29483)"
     x1="-404.98004"
     y1="-399.66516"
     x2="-405.41772"
     y2="-378.68015" /><radialGradient
     inkscape:collect="always"
     xlink:href="#linearGradient199"
     id="radialGradient334"
     gradientUnits="userSpaceOnUse"
     gradientTransform="matrix(0.76726662,0,0,0.56688993,540.42843,572.47135)"
     cx="-410.28394"
     cy="-414.38797"
     fx="-410.28394"
     fy="-414.38797"
     r="18.353374" /><inkscape:path-effect
     effect="skeletal"
     id="path-effect321"
     is_visible="true"
     lpeversion="1"
     pattern="M 0,4.9921382 C 0,2.2364779 2.2364779,0 4.9921382,0 c 2.7556604,0 4.9921383,2.2364779 4.9921383,4.9921382 0,2.7556604 -2.2364779,4.9921383 -4.9921383,4.9921383 C 2.2364779,9.9842765 0,7.7477986 0,4.9921382 Z"
     copytype="single_stretched"
     prop_scale="0.12149677"
     scale_y_rel="false"
     spacing="0"
     normal_offset="0"
     tang_offset="0"
     prop_units="false"
     vertical_pattern="false"
     hide_knot="false"
     fuse_tolerance="0" /><inkscape:path-effect
     effect="skeletal"
     id="path-effect323"
     is_visible="true"
     lpeversion="1"
     pattern="M 0,4.9921382 C 0,2.2364779 2.2364779,0 4.9921382,0 c 2.7556604,0 4.9921383,2.2364779 4.9921383,4.9921382 0,2.7556604 -2.2364779,4.9921383 -4.9921383,4.9921383 C 2.2364779,9.9842765 0,7.7477986 0,4.9921382 Z"
     copytype="single_stretched"
     prop_scale="0.18423742"
     scale_y_rel="false"
     spacing="0"
     normal_offset="0"
     tang_offset="0"
     prop_units="false"
     vertical_pattern="false"
     hide_knot="false"
     fuse_tolerance="0" /><inkscape:path-effect
     effect="skeletal"
     id="path-effect325"
     is_visible="true"
     lpeversion="1"
     pattern="M 0,4.9921382 C 0,2.2364779 2.2364779,0 4.9921382,0 c 2.7556604,0 4.9921383,2.2364779 4.9921383,4.9921382 0,2.7556604 -2.2364779,4.9921383 -4.9921383,4.9921383 C 2.2364779,9.9842765 0,7.7477986 0,4.9921382 Z"
     copytype="single_stretched"
     prop_scale="0.12149677"
     scale_y_rel="false"
     spacing="0"
     normal_offset="0"
     tang_offset="0"
     prop_units="false"
     vertical_pattern="false"
     hide_knot="false"
     fuse_tolerance="0" /><linearGradient
     inkscape:collect="always"
     xlink:href="#linearGradient214"
     id="linearGradient337"
     gradientUnits="userSpaceOnUse"
     gradientTransform="matrix(0.61336465,0,0,0.61336465,481.21295,587.29483)"
     x1="-404.44022"
     y1="-377.49185"
     x2="-404.83463"
     y2="-423.22623" /><linearGradient
     inkscape:collect="always"
     xlink:href="#linearGradient216"
     id="linearGradient338"
     gradientUnits="userSpaceOnUse"
     gradientTransform="matrix(0.65479775,0,0,0.65479775,497.98183,602.02567)"
     x1="-431.51959"
     y1="-343.81027"
     x2="-387.37057"
     y2="-391.06812" /><inkscape:path-effect
     effect="fill_between_many"
     method="bsplinespiro"
     autoreverse="false"
     close="false"
     join="false"
     linkedpaths="#path319,0,1"
     id="path-effect327"
     is_visible="true"
     lpeversion="0" /><inkscape:path-effect
     effect="powerstroke"
     message=""
     id="path-effect289"
     is_visible="true"
     lpeversion="1.3"
     scale_width="0.3"
     interpolator_type="CubicBezierJohan"
     interpolator_beta="0.2"
     start_linecap_type="zerowidth"
     end_linecap_type="zerowidth"
     offset_points="0,4.9921382"
     linejoin_type="extrp_arc"
     miter_limit="4"
     not_jump="false"
     sort_points="true" /><inkscape:path-effect
     effect="powerstroke"
     message=""
     id="path-effect329"
     is_visible="true"
     lpeversion="1.3"
     scale_width="0.3"
     interpolator_type="CubicBezierJohan"
     interpolator_beta="0.2"
     start_linecap_type="zerowidth"
     end_linecap_type="zerowidth"
     offset_points="0,4.9921382"
     linejoin_type="extrp_arc"
     miter_limit="4"
     not_jump="false"
     sort_points="true" /><linearGradient
     inkscape:collect="always"
     xlink:href="#linearGradient186"
     id="linearGradient172-3"
     gradientUnits="userSpaceOnUse"
     gradientTransform="matrix(0.6133641,0,0,0.6133641,481.21283,587.29466)"
     x1="-405.16699"
     y1="-441.78479"
     x2="-405.16699"
     y2="-456.88776" /><linearGradient
     inkscape:collect="always"
     xlink:href="#linearGradient240"
     id="linearGradient241-7"
     x1="280.36557"
     y1="255.4418"
     x2="280.36557"
     y2="266.27802"
     gradientUnits="userSpaceOnUse"
     gradientTransform="translate(-46.823474,47.625002)" /></defs><sodipodi:namedview
   id="namedview4"
   pagecolor="#ffffff"
   bordercolor="#000000"
   borderopacity="0.25"
   inkscape:showpageshadow="2"
   inkscape:pageopacity="0.0"
   inkscape:pagecheckerboard="0"
   inkscape:deskcolor="#d1d1d1"
   inkscape:zoom="0.60643929"
   inkscape:cx="168.19491"
   inkscape:cy="107.18303"
   inkscape:window-width="1512"
   inkscape:window-height="811"
   inkscape:window-x="0"
   inkscape:window-y="33"
   inkscape:window-maximized="0"
   inkscape:current-layer="svg4" />
    
    
    
    
<g
   id="g339"
   transform="matrix(3.2140956,0,0,3.2140956,-520.43618,-892.06059)"><path
     id="path300"
     style="fill:url(#linearGradient329);fill-opacity:0.521569;stroke:none;stroke-width:3.06683;stroke-linecap:round;stroke-linejoin:round;stroke-opacity:1"
     d="m 246.65682,312.66386 c -1.84179,5.87603 -0.17498,8.85349 2.29845,9.89964 4.94686,2.09239 9.40179,5.12007 13.14309,8.86141 7.48259,7.48263 12.11068,17.81977 12.11068,29.23793 0,22.83623 -18.51234,41.34863 -41.34846,41.34863 -22.83611,0 -41.34845,-18.5124 -41.34845,-41.34863 0,-11.41816 4.62809,-21.7553 12.11068,-29.23793 3.7413,-3.74134 8.19623,-6.76902 13.14309,-8.86141 2.47343,-1.04615 3.52893,-4.07623 1.27009,-9.60264"
     sodipodi:nodetypes="csssssssc" /><circle
     style="fill:url(#radialGradient329);stroke:none;stroke-width:3.68019;stroke-linecap:round;stroke-linejoin:round;stroke-opacity:1"
     id="circle300"
     cx="235.76175"
     cy="333.41003"
     r="7.9543853" /><path
     id="path301"
     style="fill:url(#linearGradient330);fill-opacity:0.521569;stroke:none;stroke-width:3.1427;stroke-linecap:round;stroke-linejoin:round;stroke-opacity:1"
     d="m 244.38223,313.70021 c 0,0.41212 -1.93229,-0.0974 -2.34437,-0.0932 -0.0555,2.56129 -0.26388,5.29125 0.97225,7.63701 1.02221,2.07409 2.84087,3.72195 4.99627,4.55558 7.36167,3.37822 13.82827,8.91011 17.8255,16.00189 5.32979,9.29683 6.57616,20.89758 3.07189,31.05298 -3.33744,9.86892 -10.83669,18.31515 -20.3925,22.53546 -8.91785,4.00447 -19.40491,4.514 -28.59738,1.11504 -9.24266,-3.35211 -17.12487,-10.38905 -21.32349,-19.2994 -4.21255,-8.76946 -4.95485,-19.18765 -1.81174,-28.41528 2.40562,-7.21937 7.01289,-13.68025 13.05229,-18.30999 2.76761,-2.21731 6.00757,-3.71264 9.1516,-5.30107 2.23961,-1.3186 3.71276,-3.69606 3.8179,-6.32887 0.19005,-1.66504 -0.27902,-3.3759 -0.31825,-5.0494 -0.89579,0.007 -2.4407,0.0178 -3.3364,0.0331 0.66539,2.44094 1.51054,5.13361 0.13073,7.35952 -0.94788,1.45274 -2.02595,2.16462 -3.59534,2.77302 -8.65446,4.03956 -15.71901,11.46077 -19.64209,20.2033 -4.04478,8.92832 -4.64394,19.27198 -1.72401,28.61378 2.92293,9.48433 9.52579,17.74684 18.07769,22.76692 6.02903,3.56813 13.00415,5.49311 20.0079,5.55751 6.23346,0.0766 12.48419,-1.29235 18.10246,-4.04256 7.68411,-3.74208 14.18836,-9.98827 18.13034,-17.60619 2.87296,-5.46515 4.45136,-11.57825 4.58531,-17.7717 0.15648,-6.6869 -1.11493,-13.40545 -4.19314,-19.36913 -0.86309,-1.6724 -1.88025,-3.38007 -2.96768,-4.92084 -1.92003,-2.71782 -4.2538,-5.27843 -6.76538,-7.43509 -3.26917,-2.78437 -6.90629,-4.96984 -10.84724,-6.62367 -2.33228,-1.08706 -3.14186,-3.44974 -3.34236,-5.95944 -0.12482,-1.23287 0.22127,-2.48321 0.46637,-3.69645 -0.39571,0.006 -1.1871,-0.37856 -1.1871,0.0172 z"
     sodipodi:nodetypes="scccccccccccccccccccccccccccccss" /><path
     style="fill:url(#linearGradient331);stroke:#452507;stroke-width:2.04858;stroke-linecap:round;stroke-linejoin:round;stroke-dasharray:none;stroke-opacity:1"
     d="m 198.70026,368.29138 c 2.37022,11.25891 14.33586,26.99559 34.10251,26.88879 19.76668,-0.10675 30.73832,-15.14715 33.16931,-23.63661 2.43099,-8.48945 2.65458,-15.36369 0.7702,-17.38533 -3.34154,-3.58499 -6.44364,3.53292 -12.67727,4.16064 -1.62324,-3.437 -7.46298,-7.94608 -7.28543,-15.05406 -4.28862,0.36545 -7.77571,3.23992 -16.41538,11.66362 -3.67186,-1.51194 -10.40641,-5.01916 -15.10844,-4.05042 -0.34192,2.86179 -1.25395,6.62607 -2.45499,8.2973 -4.56158,0.40476 -8.8577,-4.89146 -10.84715,-4.18996 -1.80928,0.63796 -5.62359,2.04698 -3.25336,13.30603 z"
     id="path302"
     sodipodi:nodetypes="zzzscccccsz" /><path
     style="fill:url(#linearGradient332);fill-rule:nonzero;stroke:none;stroke-width:6.53768;stroke-linecap:round;stroke-linejoin:miter;stroke-dasharray:none;stroke-opacity:1"
     d="m 217.96922,357.79359 c 0.23153,1.51311 -0.71562,3.44342 -2.19974,5.84658 -1.48412,2.40316 -9.2377,5.54875 -9.47917,5.00959 -0.24148,-0.53914 7.25874,-7.88112 7.90318,-9.59958 0.64442,-1.71841 1.67585,-4.63918 2.04392,-7.33106 0.85158,0.27847 1.50029,4.5613 1.73181,6.07447 z"
     id="path303"
     inkscape:linked-fill="path224"
     sodipodi:nodetypes="zzzzcz" /><path
     style="fill:url(#linearGradient333);fill-rule:nonzero;stroke:none;stroke-width:6.53768;stroke-linecap:round;stroke-linejoin:miter;stroke-dasharray:none;stroke-opacity:1"
     d="m 246.09357,358.77644 c 1.65469,3.13613 3.96731,4.7881 5.04822,8.50337 1.08092,3.71522 3.23739,8.66336 2.03668,12.15714 -1.20069,3.49379 -9.48996,8.39334 -8.84534,6.19081 2.04133,-7.03719 2.00445,-10.43713 0.30004,-14.35611 -1.70442,-3.91896 -8.69118,-5.47642 -9.73404,-9.15206 -1.04286,-3.67566 0.25658,-8.0189 1.74922,-10.32048 1.49263,-2.30153 2.20628,-3.29519 4.86029,-2.69862 2.65402,0.59656 2.93023,6.53975 4.58493,9.67595 z"
     id="path304"
     inkscape:linked-fill="path224"
     sodipodi:nodetypes="zzzczzzzz" /><path
     id="path305"
     style="fill:url(#linearGradient334);stroke:none;stroke-width:3.06683;stroke-linecap:round;stroke-linejoin:round;stroke-opacity:1"
     d="m 243.53421,314.97202 c -0.44023,-0.0147 -0.88091,0.007 -1.32137,0.0115 -0.48108,2.29847 -0.0465,4.53945 0.61797,6.67169 0.5106,1.63849 1.43878,3.1573 2.52162,4.48873 1.09214,1.34279 2.54451,2.59043 3.91403,3.41227 8.92751,4.70426 15.70021,13.39632 17.86562,23.27522 2.0167,8.83779 0.53352,18.47008 -4.28138,26.17755 -4.79681,7.82133 -12.7263,13.71201 -21.68149,15.81028 -8.14348,1.99558 -16.99813,0.97788 -24.44051,-2.90067 -8.45479,-4.35759 -15.01417,-12.27012 -17.63033,-21.42543 -2.55107,-8.80548 -1.56634,-18.622 2.89588,-26.65408 3.14812,-5.73226 7.89638,-10.59508 13.59262,-13.81548 1.89042,-1.04364 3.9244,-2.37471 5.31194,-4.13929 0.85579,-1.08829 1.39488,-2.43733 1.70827,-3.78593 0.5188,-2.23247 0.34139,-4.34103 0.22551,-6.87227 -0.73157,0.0116 -2.56312,-0.0387 -3.29468,-0.027 0.59932,2.44175 0.92871,4.7288 -0.55295,6.86901 -1.03976,1.45441 -3.11364,1.95626 -4.70668,2.62777 -6.92996,3.29243 -12.83356,9.49697 -16.72533,16.03741 -4.30718,7.21083 -5.80312,15.91453 -4.89912,24.21557 0.87832,8.40022 5.09153,17.67919 10.89323,23.81965 3.35764,3.56794 8.02334,6.77559 12.43428,8.85115 7.50328,3.55973 16.76556,4.41586 24.8872,2.82504 7.08159,-1.36712 14.45837,-5.2063 19.73364,-10.14984 3.75024,-3.49207 7.13325,-8.31777 9.2431,-12.98211 1.63232,-3.56566 2.72227,-7.7244 3.20025,-11.6043 1.04915,-8.21835 -0.57019,-17.59319 -4.66818,-24.84206 -4.17852,-7.4717 -10.81375,-13.6941 -18.7113,-17.0521 -1.72407,-0.72321 -3.32669,-1.61394 -3.99304,-3.37153 -0.76006,-1.83194 -0.64199,-3.48846 -0.32854,-5.42491 -0.0831,0 -0.16612,0.0101 -0.24917,0.007 z"
     sodipodi:nodetypes="scaaccccccccaaccccccccccccccccss" /><path
     style="fill:url(#radialGradient334);stroke:none;stroke-width:3.68019;stroke-linecap:round;stroke-linejoin:round;stroke-opacity:1"
     d="m 220.08358,338.89386 c -0.0862,-3.4351 2.43349,-5.84059 5.04424,-6.01436 2.00969,-0.13376 5.17483,1.424 4.46222,4.07422 2.94907,-1.025 7.97621,1.32388 7.76037,4.26821 -0.36575,4.9898 -9.4984,7.95909 -14.06568,5.23826 -4.85048,2.49892 -8.29178,-1.1192 -8.4394,-4.26822 -0.0966,-2.06109 2.31163,-4.54816 5.23825,-3.29811 z"
     id="path306"
     sodipodi:nodetypes="cacacac" /><g
     id="g307"
     transform="matrix(0.65479775,0,0,0.65479775,497.98183,602.02567)"><circle
       style="fill:#a05616;fill-opacity:1;stroke:#452507;stroke-width:1.54429;stroke-linecap:round;stroke-linejoin:round;stroke-dasharray:none;stroke-opacity:1"
       id="circle306"
       cx="-387.3815"
       cy="-356.22299"
       r="8.0657406" /><path
       style="fill:#d0830b;fill-opacity:1;stroke:none;stroke-width:4.99999;stroke-linecap:round;stroke-linejoin:round;stroke-dasharray:none;stroke-opacity:1"
       d="m -539.01301,-295.28136 c 0.0161,-0.0235 0.0406,-0.039 0.0747,-0.049 0,0 0,0 0,0 0.0302,-0.009 0.0673,-0.0118 0.11087,-0.01 0,0 0,0 0,0 0.085,0.004 0.19425,0.027 0.32402,0.069 l 0,0 c 0.24318,0.0789 0.56084,0.22439 0.92173,0.43175 l 0,0 c 0.52452,0.29636 1.27899,0.78119 1.88713,1.50381 0.003,0.004 0.006,0.008 0.009,0.0115 0.59583,0.73206 0.93332,1.56303 1.12857,2.13502 l 0,0 c 0.13822,0.39559 0.22331,0.73701 0.25631,0.9923 l 0,0 c 0,0 0,0 0,0 0.0179,0.13706 0.0209,0.24982 0.009,0.33453 l 0,0 0,0 c -0.0497,0.0621 -0.0737,0.10359 -0.0848,0.13054 -0.0107,0.0258 -0.009,0.0379 -0.008,0.0406 0,0 0,0 0,0 0,0 0,0 0,0 0,0 0,0 0,0 0,0 0,0 0,0 0,0 0,0 0,0 0,0 0,0 0,0 0,0 0,0 0,0 0,0 0,0 0,0 0,0 0,0 0,0 0,0 0,0 0,0 10e-5,3.8e-4 7e-5,3.3e-4 7e-5,3.3e-4 0,0 2e-5,6e-5 -1.9e-4,-2.8e-4 0,0 0,0 0,0 0,0 0,0 0,0 0,0 0,0 0,0 0,0 0,0 0,0 0,0 0,0 0,0 0,0 0,0 0,0 0,0 0,0 0,0 0,0 0,0 0,0 0,0 0,0 0,0 0,0 0,0 0,0 -0.001,-0.002 -0.009,-0.012 -0.0351,-0.0218 -0.0273,-0.0103 -0.0741,-0.021 -0.15368,-0.0269 l 0,0 0,0 c -0.0702,-0.0473 -0.15113,-0.12312 -0.24105,-0.22324 0,0 0,0 0,0 l 0,0 c -0.16981,-0.1896 -0.37014,-0.4643 -0.59653,-0.8009 l 0,0 c -0.29883,-0.44173 -0.7916,-1.28965 -1.21,-1.78853 -0.002,-0.003 -0.005,-0.006 -0.007,-0.009 -0.41049,-0.50459 -1.14973,-1.14392 -1.52781,-1.51939 l 0,0 c -0.28662,-0.28312 -0.51757,-0.5293 -0.67115,-0.73008 l 0,0 c -0.0819,-0.10684 -0.14113,-0.20011 -0.17432,-0.2774 0,0 0,0 0,0 -0.017,-0.0396 -0.0272,-0.0751 -0.0301,-0.10613 0,0 0,0 0,0 -0.003,-0.0352 0.003,-0.0634 0.0187,-0.0869 z"
       id="path307"
       sodipodi:nodetypes="cac"
       transform="rotate(-37.338905,-562.11393,-549.66609)"
       inkscape:original-d="m -539.01329,-295.28155 c 0,0 2.06791,1.38748 2.85184,2.33292 0.78954,0.9522 1.77714,3.25766 1.77714,3.25766"
       inkscape:path-effect="#path-effect321" /></g><g
     id="g308"
     transform="matrix(0.65479775,0,0,0.65479775,497.98183,602.02567)"><circle
       style="fill:#a05616;fill-opacity:1;stroke:#452507;stroke-width:2.00096;stroke-linecap:round;stroke-linejoin:round;stroke-dasharray:none;stroke-opacity:1"
       id="circle307"
       cx="-540.07178"
       cy="-35.080303"
       r="9.343277"
       transform="rotate(35.226196)" /><path
       style="fill:#ffb100;fill-opacity:0.505882;stroke:none;stroke-width:4.99999;stroke-linecap:round;stroke-linejoin:round;stroke-dasharray:none;stroke-opacity:1"
       d="m -539.01301,-295.28136 c 0.0244,-0.0356 0.0566,-0.0624 0.0988,-0.0841 0,0 0,0 0,0 0.0373,-0.0188 0.0813,-0.032 0.13173,-0.0399 0,0 0,0 0,0 0.0984,-0.0154 0.22054,-0.01 0.36267,0.0152 l 0,0 c 0.26676,0.0477 0.60591,0.16658 0.98643,0.35472 l 0,0 c 0.55402,0.26542 1.32904,0.73138 1.97991,1.49978 0.003,0.004 0.007,0.008 0.01,0.0121 0.63265,0.78181 0.94802,1.62933 1.10754,2.22448 l 0,0 c 0.1157,0.41133 0.17054,0.76897 0.16846,1.04172 l 0,0 c 0,0 0,0 0,0 -7.4e-4,0.14659 -0.0178,0.26892 -0.0511,0.36327 l 0,10e-6 0,0 c -0.083,0.0766 -0.1253,0.12603 -0.14636,0.1573 -0.0202,0.0299 -0.0198,0.0426 -0.0193,0.0454 0,0 0,0 0,0 0,0 0,0 0,0 0,0 0,0 0,0 0,0 0,0 0,0 0,0 0,0 0,0 0,0 0,0 0,0 0,0 0,0 0,0 0,0 0,0 0,0 0,0 0,0 0,0 0,0 0,0 0,0 7e-5,4e-4 4e-5,3.5e-4 4e-5,3.5e-4 0,0 10e-6,6e-5 -2.2e-4,-2.7e-4 0,0 0,0 0,0 0,0 0,0 0,0 0,0 0,0 0,0 0,0 0,0 0,0 0,0 0,0 0,0 0,0 0,0 0,0 0,0 0,0 0,0 0,0 0,0 0,0 0,0 0,0 0,0 0,0 0,0 0,0 -0.002,-0.002 -0.0106,-0.0113 -0.0463,-0.017 -0.0372,-0.006 -0.10228,-0.009 -0.21524,-9e-5 l 0,0 0,0 c -0.0914,-0.0377 -0.19251,-0.10389 -0.30101,-0.1945 0,0 0,0 0,0 l 0,0 c -0.20478,-0.17201 -0.43558,-0.43075 -0.68438,-0.75149 l 0,0 c -0.39508,-0.50702 -0.77532,-1.16141 -1.23103,-1.69906 -0.002,-0.003 -0.005,-0.005 -0.007,-0.008 -0.44006,-0.54755 -1.01156,-1.04182 -1.43503,-1.52341 l 0,0 c -0.26689,-0.30221 -0.47656,-0.57533 -0.60645,-0.80711 l 0,0 c -0.0695,-0.12359 -0.11582,-0.23492 -0.13566,-0.33122 0,0 0,0 0,0 -0.0102,-0.0494 -0.0134,-0.0949 -0.009,-0.13609 0,0 0,0 0,0 0.005,-0.0469 0.0184,-0.0864 0.0428,-0.12196 z"
       id="path308"
       sodipodi:nodetypes="cac"
       transform="matrix(0.94125176,-0.0347232,0.0347232,0.94125176,98.633863,-86.948888)"
       inkscape:original-d="m -539.01329,-295.28155 c 0,0 2.06791,1.38748 2.85184,2.33292 0.78954,0.9522 1.77714,3.25766 1.77714,3.25766"
       inkscape:path-effect="#path-effect323" /></g><g
     id="g309"
     transform="matrix(0.65479775,0,0,0.65479775,497.98183,602.02567)"><circle
       style="fill:#a05616;fill-opacity:1;stroke:#452507;stroke-width:1.10306;stroke-linecap:round;stroke-linejoin:round;stroke-dasharray:none;stroke-opacity:1"
       id="circle308"
       cx="129.88785"
       cy="-541.20593"
       r="4.2328191"
       transform="rotate(-62.127015)" /><path
       style="fill:#d0830b;fill-opacity:1;stroke:none;stroke-width:4.99999;stroke-linecap:round;stroke-linejoin:round;stroke-dasharray:none;stroke-opacity:1"
       d="m -539.01301,-295.28136 c 0.0161,-0.0235 0.0406,-0.039 0.0747,-0.049 0,0 0,0 0,0 0.0302,-0.009 0.0673,-0.0118 0.11087,-0.01 0,0 0,0 0,0 0.085,0.004 0.19425,0.027 0.32402,0.069 l 0,0 c 0.24318,0.0789 0.56084,0.22439 0.92173,0.43175 l 0,0 c 0.52452,0.29636 1.27899,0.78119 1.88713,1.50381 0.003,0.004 0.006,0.008 0.009,0.0115 0.59583,0.73206 0.93332,1.56303 1.12857,2.13502 l 0,0 c 0.13822,0.39559 0.22331,0.73701 0.25631,0.9923 l 0,0 c 0,0 0,0 0,0 0.0179,0.13706 0.0209,0.24982 0.009,0.33453 l 0,0 0,0 c -0.0497,0.0621 -0.0737,0.10359 -0.0848,0.13054 -0.0107,0.0258 -0.009,0.0379 -0.008,0.0406 0,0 0,0 0,0 0,0 0,0 0,0 0,0 0,0 0,0 0,0 0,0 0,0 0,0 0,0 0,0 0,0 0,0 0,0 0,0 0,0 0,0 0,0 0,0 0,0 0,0 0,0 0,0 0,0 0,0 0,0 10e-5,3.8e-4 7e-5,3.3e-4 7e-5,3.3e-4 0,0 2e-5,6e-5 -1.9e-4,-2.8e-4 0,0 0,0 0,0 0,0 0,0 0,0 0,0 0,0 0,0 0,0 0,0 0,0 0,0 0,0 0,0 0,0 0,0 0,0 0,0 0,0 0,0 0,0 0,0 0,0 0,0 0,0 0,0 0,0 0,0 0,0 -0.001,-0.002 -0.009,-0.012 -0.0351,-0.0218 -0.0273,-0.0103 -0.0741,-0.021 -0.15368,-0.0269 l 0,0 0,0 c -0.0702,-0.0473 -0.15113,-0.12312 -0.24105,-0.22324 0,0 0,0 0,0 l 0,0 c -0.16981,-0.1896 -0.37014,-0.4643 -0.59653,-0.8009 l 0,0 c -0.29883,-0.44173 -0.7916,-1.28965 -1.21,-1.78853 -0.002,-0.003 -0.005,-0.006 -0.007,-0.009 -0.41049,-0.50459 -1.14973,-1.14392 -1.52781,-1.51939 l 0,0 c -0.28662,-0.28312 -0.51757,-0.5293 -0.67115,-0.73008 l 0,0 c -0.0819,-0.10684 -0.14113,-0.20011 -0.17432,-0.2774 0,0 0,0 0,0 -0.017,-0.0396 -0.0272,-0.0751 -0.0301,-0.10613 0,0 0,0 0,0 -0.003,-0.0352 0.003,-0.0634 0.0187,-0.0869 z"
       id="path309"
       sodipodi:nodetypes="cac"
       transform="matrix(-0.08630743,-0.51764412,0.51764412,-0.08630743,-314.28696,-672.24635)"
       inkscape:original-d="m -539.01329,-295.28155 c 0,0 2.06791,1.38748 2.85184,2.33292 0.78954,0.9522 1.77714,3.25766 1.77714,3.25766"
       inkscape:path-effect="#path-effect325" /></g><path
     id="path310"
     style="fill:none;fill-opacity:0.521569;stroke:#607b82;stroke-width:1.84009;stroke-linecap:round;stroke-linejoin:round;stroke-dasharray:none;stroke-opacity:1"
     d="m 246.65682,312.66386 c -1.84179,5.87603 -0.17498,8.85349 2.29845,9.89964 4.94686,2.09239 9.40179,5.12007 13.14309,8.86141 7.48259,7.48263 12.11068,17.81977 12.11068,29.23793 0,22.83623 -18.51234,41.34863 -41.34846,41.34863 -22.83611,0 -41.34845,-18.5124 -41.34845,-41.34863 0,-11.41816 4.62809,-21.7553 12.11068,-29.23793 3.7413,-3.74134 8.19623,-6.76902 13.14309,-8.86141 2.47343,-1.04615 3.52893,-4.07623 1.27009,-9.60264"
     sodipodi:nodetypes="csssssssc" /><ellipse
     style="fill:url(#linearGradient337);fill-opacity:1;stroke:none;stroke-width:1.0672;stroke-linecap:round;stroke-linejoin:miter;stroke-dasharray:none;stroke-opacity:1"
     id="ellipse316"
     cx="232.86061"
     cy="349.62683"
     rx="26.532393"
     ry="19.959806" /><path
     style="fill:url(#linearGradient338);stroke:none;stroke-width:1.3096;stroke-linecap:round;stroke-linejoin:miter;stroke-dasharray:none;stroke-opacity:1"
     d="m 245.82638,344.43984 c 0.0546,1.03824 -1.01504,3.4771 -1.29319,5.58424 -0.27817,2.10722 1.6231,8.96887 1.6231,8.96887 -3.74332,-2.79246 -3.72496,-8.01447 -4.92427,-8.50307 -0.63789,-0.21265 -3.22652,0.52123 -4.67011,3.05609 -1.44358,2.53485 -0.29005,8.25252 -2.24305,10.60471 -4.14874,4.99684 -13.57052,3.60952 -16.79319,5.23629 -3.10315,1.56678 -7.17743,8.20793 -7.17743,8.20793 0,0 1.57721,-6.01277 5.07189,-8.7783 3.49465,-2.76554 12.68296,-1.63946 15.89835,-4.77928 3.21539,-3.13987 1.38592,-7.87357 3.70637,-11.31424 2.32044,-3.44074 7.4419,-7.62406 10.80153,-8.28324 z"
     id="path317"
     sodipodi:nodetypes="czcczzzczzzc" /><path
     inkscape:original-d="M 0,0"
     inkscape:path-effect="#path-effect327"
     d="m -434.92722,-371.79888 c -4.8864,10.07857 -10.70315,15.30646 -10.70315,15.30646"
     id="path318"
     style="fill:#ac6230"
     transform="matrix(0.65479775,0,0,0.65479775,497.98183,602.02567)"
     inkscape:linked-fill="path318" /><path
     style="fill:#452507;fill-opacity:1;fill-rule:nonzero;stroke:none;stroke-width:1;stroke-linecap:round;stroke-linejoin:miter;stroke-dasharray:none;stroke-opacity:1"
     d="m -434.92722,-371.79888 c 0,0 -1.34761,-0.65336 -1.34761,-0.65336 -1.43146,2.9525 -4.26931,8.34628 -6.41981,11.61667 -2.1505,3.27038 -2.93573,4.34315 -2.93573,4.34315 0,0 1.05209,-0.26203 4.10262,-3.40438 3.1844,-3.28026 6.15847,-7.55739 7.94814,-11.24872 z"
     id="path319"
     inkscape:path-effect="#path-effect289"
     inkscape:original-d="m -434.92722,-371.79888 c -4.8864,10.07857 -10.70315,15.30646 -10.70315,15.30646"
     inkscape:linked-fill="path220"
     sodipodi:nodetypes="cc"
     transform="matrix(0.65479775,0,0,0.65479775,497.98183,602.02567)" /><path
     style="fill:#452507;fill-opacity:1;fill-rule:nonzero;stroke:none;stroke-width:1;stroke-linecap:round;stroke-linejoin:miter;stroke-dasharray:none;stroke-opacity:1"
     d="m -434.92722,-371.79888 c 0,0 -1.34761,-0.65336 -1.34761,-0.65336 -1.9782,4.08018 -3.84203,7.62477 -7.27387,12.59244 -2.67121,3.86666 -3.79621,5.32686 -3.79621,5.32686 0,0 1.30185,-0.55341 4.95668,-4.38015 3.78308,-3.96103 7.01131,-8.52535 8.80862,-12.23243 z"
     id="path320"
     inkscape:path-effect="#path-effect329"
     inkscape:original-d="m -434.92722,-371.79888 c -4.8864,10.07857 -12.41769,17.26594 -12.41769,17.26594"
     inkscape:linked-fill="path220"
     sodipodi:nodetypes="cc"
     transform="matrix(-0.65479775,0,0,0.65479775,-30.823128,601.68701)" /><g
     id="g338"><ellipse
       style="fill:url(#linearGradient172-3);fill-opacity:1;stroke:#607b82;stroke-width:1.84009;stroke-linecap:round;stroke-linejoin:round;stroke-dasharray:none;stroke-opacity:1"
       id="ellipse136-9"
       ry="5.1591134"
       rx="15.993252"
       cy="311.68805"
       cx="232.86061" /><ellipse
       style="fill:#abd5dc;fill-opacity:1;stroke:#607b82;stroke-width:1.38804;stroke-linecap:round;stroke-linejoin:round;stroke-dasharray:none;stroke-opacity:1"
       id="ellipse137-8"
       cx="232.86061"
       cy="311.68805"
       rx="10.638349"
       ry="2.0003409" /><path
       style="fill:url(#linearGradient241-7);fill-opacity:1;stroke:none;stroke-width:1;stroke-linecap:butt;stroke-linejoin:round;stroke-dasharray:none;stroke-opacity:1"
       d="m 232.19507,313.52343 c 0,0 -0.94107,-2.97917 -0.42947,-5.12315 0.5116,-2.14398 2.82689,-2.22894 2.64398,-3.74644 -0.26972,-2.23773 -4.51762,-0.77926 -5.09988,-4.43992 -0.58226,-3.66066 5.05221,-7.08246 8.25406,-5.96116 -1.6162,1.40294 -2.23377,2.23847 -2.02577,3.59945 0.37101,2.42756 5.54993,2.36188 5.49985,6.33804 -0.0501,3.97616 -6.10554,3.37336 -6.83005,5.15123 -0.72451,1.77786 -0.69027,4.18195 -0.69027,4.18195"
       id="path234-6"
       sodipodi:nodetypes="czazcszzc" /><path
       id="ellipse238-5"
       style="fill:none;stroke:#607b82;stroke-width:1.38804;stroke-linecap:round;stroke-linejoin:round"
       d="m 243.49895,311.68808 c 1e-5,1.10476 -4.76294,2.00034 -10.63834,2.00034 -5.87541,0 -10.63836,-0.89558 -10.63835,-2.00034"
       sodipodi:nodetypes="csc" /></g></g></svg>
